<svg xmlns="http://www.w3.org/2000/svg" width="256" height="154" viewBox="0 0 256 154" fill="none"><path d="M240.729 0.857422H15.2713C6.83719 0.857422 0 7.69461 0 16.1287V138.242C0 146.677 6.83719 153.514 15.2713 153.514H240.729C249.163 153.514 256 146.677 256 138.242V16.1287C256 7.69461 249.163 0.857422 240.729 0.857422Z" fill="url(#paint0_linear_207_1952)"></path><path style="mix-blend-mode:screen" opacity="0.3" d="M236.16 149.274H18.2577C10.1062 149.274 3.49878 142.784 3.49878 134.778V18.8861C3.49878 10.8797 10.1062 4.39258 18.2577 4.39258H236.16C244.311 4.39258 250.919 10.8797 250.919 18.8861V134.778C250.919 142.784 244.311 149.274 236.16 149.274Z" fill="url(#paint1_linear_207_1952)"></path><path d="M171.628 49.4873C171.21 48.9198 170.663 48.4596 170.032 48.1443C169.402 47.829 168.705 47.6676 168 47.6733L108.233 48.1608L108.305 57.0923L112.765 57.056L118.763 90.8411L110.867 90.9068L92.9091 37.3949C92.6096 36.5018 92.0354 35.7263 91.2685 35.1794C90.5016 34.6324 89.5813 34.342 88.6394 34.3498L74.9553 34.4609L75.028 43.3924L85.465 43.3017L101.809 91.9907C96.4395 93.8455 91.2425 98.2421 91.3082 106.255C91.3377 109.951 92.6936 113.117 95.2287 115.404C99.1831 118.973 104.915 119.416 107.727 119.393C108.353 119.393 108.833 119.359 109.117 119.338L157.466 118.826L157.37 109.894L108.861 110.418C108.736 110.418 108.613 110.418 108.489 110.439C106.949 110.584 102.968 110.371 101.212 108.786C100.759 108.382 100.251 107.722 100.237 106.194C100.19 100.437 106.523 99.9086 107.693 99.861L150.65 99.5118L154.443 99.4824C155.385 99.4745 156.3 99.1692 157.058 98.6101C157.816 98.051 158.378 97.2667 158.663 96.3691L172.284 53.4961C172.499 52.8237 172.552 52.1098 172.438 51.4129C172.324 50.716 172.047 50.0561 171.628 49.4873V49.4873ZM142.589 56.8111L135.349 90.1994L125.465 90.2788L119.556 56.9971L142.589 56.8111ZM151.137 90.569H150.584L142.108 90.6393L149.457 56.7499L161.912 56.6502L151.137 90.569Z" fill="white"></path><defs><linearGradient id="paint0_linear_207_1952" x1="305.021" y1="-47.1203" x2="-69.6567" y2="-22.3543" gradientUnits="userSpaceOnUse"><stop stop-color="#DB1F77"></stop><stop offset="1" stop-color="#DB1F4C"></stop></linearGradient><linearGradient id="paint1_linear_207_1952" x1="-54.5004" y1="-31.8595" x2="246.844" y2="148.387" gradientUnits="userSpaceOnUse"><stop stop-color="white"></stop><stop offset="1"></stop></linearGradient></defs></svg>