<svg xmlns="http://www.w3.org/2000/svg" width="252" height="90" viewBox="0 0 252 90" fill="none"><path d="M68.2371 50.9997V42.3749L86.3347 26.5304C87.6914 25.3029 88.8462 24.1804 89.7991 23.1628C90.7521 22.1291 91.4789 21.0955 91.9796 20.0618C92.4803 19.0119 92.7306 17.8733 92.7306 16.6458C92.7306 15.2729 92.4318 14.1019 91.8342 13.1328C91.2366 12.1476 90.4129 11.3885 89.363 10.8555C88.3132 10.3225 87.1099 10.056 85.7532 10.056C84.3804 10.056 83.1771 10.3387 82.1434 10.9039C81.1097 11.4531 80.3021 12.2526 79.7207 13.3024C79.1554 14.3523 78.8727 15.6282 78.8727 17.1303H67.5103C67.5103 13.7547 68.2694 10.8393 69.7876 8.38434C71.3058 5.92933 73.4378 4.03962 76.1835 2.71521C78.9454 1.37464 82.1515 0.704362 85.8017 0.704362C89.5649 0.704362 92.8356 1.33426 95.6136 2.59407C98.3917 3.85388 100.54 5.61438 102.058 7.87557C103.592 10.1206 104.36 12.7291 104.36 15.7009C104.36 17.5906 103.98 19.4642 103.221 21.3216C102.462 23.179 101.097 25.2302 99.1265 27.4752C97.1722 29.7203 94.3942 32.4095 90.7924 35.5429L84.8568 41.0182V41.3331H104.965V50.9997H68.2371Z" fill="#DB1F77"></path><path d="M113.851 50.9997L133.862 11.3643V11.0493H110.459V1.38272H146.266V11.122L126.182 50.9997H113.851Z" fill="#DB1F77"></path><path d="M156.508 44.2161L156.29 46.9053C156.096 49.1342 155.701 51.3066 155.103 53.4224C154.522 55.5544 153.9 57.4683 153.238 59.1642C152.575 60.8601 152.051 62.1764 151.663 63.1132H144.201C144.459 62.1764 144.807 60.8601 145.243 59.1642C145.695 57.4683 146.115 55.5544 146.503 53.4224C146.89 51.2904 147.108 49.1261 147.157 46.9296L147.205 44.2161H156.508Z" fill="#DB1F77"></path><path d="M183.122 0.704362C185.835 0.704362 188.427 1.14852 190.899 2.03685C193.37 2.90902 195.574 4.30612 197.513 6.22813C199.451 8.13399 200.977 10.6455 202.091 13.7627C203.206 16.88 203.763 20.6836 203.763 25.1737C203.779 29.3084 203.295 33.0152 202.31 36.2939C201.324 39.5565 199.911 42.3345 198.07 44.628C196.245 46.9215 194.048 48.6739 191.48 49.8853C188.912 51.0805 186.045 51.6781 182.879 51.6781C179.391 51.6781 176.314 51.0078 173.649 49.6672C171 48.3105 168.876 46.4854 167.277 44.1919C165.694 41.8984 164.75 39.3303 164.443 36.4877H176.241C176.613 38.1351 177.396 39.3788 178.591 40.2187C179.786 41.0424 181.216 41.4542 182.879 41.4542C185.916 41.4542 188.185 40.1379 189.687 37.5052C191.189 34.8726 191.94 31.295 191.94 26.7727H191.65C190.955 28.2586 189.97 29.5345 188.694 30.6005C187.434 31.6665 185.972 32.4822 184.309 33.0475C182.645 33.6128 180.893 33.8954 179.052 33.8954C176.08 33.8954 173.455 33.2171 171.178 31.8603C168.917 30.5036 167.14 28.6381 165.848 26.2639C164.572 23.8896 163.926 21.1762 163.91 18.1236C163.894 14.6995 164.693 11.6792 166.308 9.06269C167.923 6.43002 170.176 4.3788 173.067 2.90903C175.959 1.4231 179.31 0.68821 183.122 0.704362ZM183.194 9.91064C181.708 9.91064 180.384 10.2579 179.221 10.9524C178.074 11.6469 177.17 12.5837 176.508 13.7627C175.846 14.9418 175.522 16.2662 175.539 17.736C175.555 19.2057 175.886 20.5302 176.532 21.7092C177.194 22.8883 178.091 23.825 179.221 24.5195C180.368 25.2141 181.676 25.5613 183.146 25.5613C184.244 25.5613 185.262 25.3594 186.199 24.9556C187.135 24.5518 187.951 23.9946 188.645 23.284C189.34 22.5572 189.881 21.7173 190.269 20.7644C190.672 19.8114 190.866 18.7939 190.85 17.7117C190.834 16.2743 190.495 14.966 189.833 13.787C189.17 12.6079 188.258 11.6711 187.095 10.9766C185.948 10.266 184.648 9.91064 183.194 9.91064Z" fill="#DB1F77"></path><path d="M230.867 52.2111C226.539 52.2111 222.808 51.1854 219.674 49.1342C216.541 47.0668 214.126 44.1031 212.43 40.2429C210.734 36.3666 209.895 31.7069 209.911 26.2639C209.927 20.8209 210.775 16.2016 212.455 12.406C214.15 8.5943 216.557 5.69513 219.674 3.70852C222.808 1.70575 226.539 0.704362 230.867 0.704362C235.196 0.704362 238.927 1.70575 242.06 3.70852C245.21 5.69513 247.632 8.5943 249.328 12.406C251.024 16.2177 251.864 20.837 251.848 26.2639C251.848 31.7231 251 36.3908 249.304 40.2671C247.608 44.1435 245.193 47.1072 242.06 49.1584C238.943 51.1935 235.212 52.2111 230.867 52.2111ZM230.867 42.3991C233.451 42.3991 235.543 41.0828 237.142 38.4501C238.741 35.8013 239.532 31.7392 239.516 26.2639C239.516 22.6783 239.153 19.7226 238.426 17.3968C237.699 15.0548 236.69 13.3105 235.398 12.1638C234.105 11.017 232.595 10.4436 230.867 10.4436C228.299 10.4436 226.224 11.7438 224.641 14.3442C223.058 16.9284 222.258 20.9016 222.242 26.2639C222.226 29.898 222.573 32.9102 223.284 35.3006C224.011 37.691 225.028 39.4757 226.337 40.6548C227.645 41.8177 229.155 42.3991 230.867 42.3991Z" fill="#DB1F77"></path><path d="M11.1173 28.0939V51.2485H6.22186V32.7407H6.08618L0.783691 36.0646V31.7231L6.51581 28.0939H11.1173Z" fill="#DB1F77"></path><path d="M16.6205 51.2485V47.721L24.8625 40.0895C25.5635 39.4112 26.1514 38.8006 26.6263 38.258C27.1087 37.7153 27.4742 37.1839 27.723 36.6638C27.9717 36.1362 28.0961 35.5671 28.0961 34.9566C28.0961 34.2783 27.9415 33.6941 27.6325 33.2042C27.3235 32.7067 26.9014 32.3261 26.3662 32.0623C25.8311 31.791 25.2243 31.6553 24.546 31.6553C23.8375 31.6553 23.2194 31.7985 22.6918 32.0849C22.1642 32.3713 21.7572 32.7821 21.4708 33.3173C21.1843 33.8524 21.0411 34.4893 21.0411 35.228H16.3944C16.3944 33.713 16.7373 32.3977 17.4232 31.2822C18.1091 30.1667 19.0701 29.3036 20.3062 28.6931C21.5424 28.0826 22.9669 27.7773 24.5799 27.7773C26.2381 27.7773 27.6815 28.0713 28.9101 28.6592C30.1462 29.2396 31.1072 30.0461 31.7931 31.0787C32.479 32.1113 32.8219 33.2946 32.8219 34.6288C32.8219 35.5031 32.6486 36.3661 32.3019 37.2178C31.9627 38.0695 31.3559 39.0155 30.4816 40.0556C29.6073 41.0882 28.3749 42.3281 26.7846 43.7753L23.4041 47.0879V47.2462H33.1272V51.2485H16.6205Z" fill="#DB1F77"></path><path d="M40.7446 33.8826L43.9329 39.9539L47.2003 33.8826H52.141L47.1098 42.5655L52.2767 51.2485H47.3586L43.9329 45.245L40.5637 51.2485H35.5891L40.7446 42.5655L35.77 33.8826H40.7446Z" fill="#DB1F77"></path><path d="M60.4077 88.2177C59.3175 88.2177 58.3726 87.9778 57.5731 87.4981C56.7736 87.0184 56.1534 86.3474 55.7125 85.4849C55.2764 84.6224 55.0583 83.6145 55.0583 82.4613C55.0583 81.3081 55.2764 80.2979 55.7125 79.4305C56.1534 78.5632 56.7736 77.8897 57.5731 77.41C58.3726 76.9303 59.3175 76.6905 60.4077 76.6905C61.4979 76.6905 62.4428 76.9303 63.2422 77.41C64.0417 77.8897 64.6595 78.5632 65.0956 79.4305C65.5365 80.2979 65.757 81.3081 65.757 82.4613C65.757 83.6145 65.5365 84.6224 65.0956 85.4849C64.6595 86.3474 64.0417 87.0184 63.2422 87.4981C62.4428 87.9778 61.4979 88.2177 60.4077 88.2177ZM60.4222 86.1099C61.0134 86.1099 61.5076 85.9476 61.9049 85.623C62.3022 85.2935 62.5978 84.8525 62.7916 84.3002C62.9903 83.7478 63.0896 83.1324 63.0896 82.4541C63.0896 81.7709 62.9903 81.1531 62.7916 80.6007C62.5978 80.0435 62.3022 79.6001 61.9049 79.2706C61.5076 78.9411 61.0134 78.7764 60.4222 78.7764C59.8165 78.7764 59.3126 78.9411 58.9104 79.2706C58.5131 79.6001 58.2151 80.0435 58.0165 80.6007C57.8227 81.1531 57.7257 81.7709 57.7257 82.4541C57.7257 83.1324 57.8227 83.7478 58.0165 84.3002C58.2151 84.8525 58.5131 85.2935 58.9104 85.623C59.3126 85.9476 59.8165 86.1099 60.4222 86.1099Z" fill="#EFEFEF"></path><path d="M75.1056 83.3044V76.8358H77.7367V87.9996H75.1856V86.0154H75.0693C74.8173 86.6405 74.403 87.1517 73.8264 87.549C73.2547 87.9463 72.5497 88.145 71.7114 88.145C70.9798 88.145 70.3329 87.9827 69.7708 87.658C69.2136 87.3286 68.7775 86.8513 68.4626 86.2262C68.1476 85.5963 67.9901 84.8356 67.9901 83.944V76.8358H70.6212V83.537C70.6212 84.2444 70.815 84.8065 71.2026 85.2232C71.5903 85.6399 72.099 85.8483 72.729 85.8483C73.1166 85.8483 73.4921 85.7538 73.8555 85.5648C74.2189 85.3759 74.5169 85.0948 74.7495 84.7217C74.9869 84.3438 75.1056 83.8714 75.1056 83.3044Z" fill="#EFEFEF"></path><path d="M90.7121 87.9996V73.1145H96.294C97.4375 73.1145 98.3969 73.3132 99.1722 73.7105C99.9523 74.1079 100.541 74.6651 100.938 75.3822C101.34 76.0945 101.542 76.9255 101.542 77.8752C101.542 78.8297 101.338 79.6583 100.931 80.3609C100.529 81.0586 99.9353 81.5989 99.1504 81.9816C98.3654 82.3596 97.4012 82.5486 96.2576 82.5486H92.282V80.31H95.8942C96.5629 80.31 97.1104 80.2179 97.5368 80.0338C97.9632 79.8448 98.2782 79.5711 98.4817 79.2125C98.69 78.8491 98.7942 78.4033 98.7942 77.8752C98.7942 77.347 98.69 76.8964 98.4817 76.5233C98.2733 76.1453 97.956 75.8595 97.5296 75.6657C97.1032 75.467 96.5532 75.3677 95.8797 75.3677H93.4086V87.9996H90.7121ZM98.4017 81.2548L102.087 87.9996H99.0777L95.4582 81.2548H98.4017Z" fill="#EFEFEF"></path><path d="M108.675 89.8603V71.2539H109.867V89.8603H108.675ZM112.113 77.2065C112.045 76.5717 111.759 76.0775 111.255 75.7238C110.756 75.3701 110.107 75.1932 109.308 75.1932C108.745 75.1932 108.263 75.278 107.861 75.4476C107.459 75.6172 107.151 75.8474 106.938 76.1381C106.725 76.4288 106.616 76.7607 106.611 77.1338C106.611 77.4439 106.681 77.7128 106.822 77.9406C106.967 78.1683 107.163 78.3621 107.411 78.522C107.658 78.6771 107.931 78.8079 108.232 78.9145C108.532 79.0211 108.835 79.1107 109.14 79.1834L110.536 79.5323C111.098 79.6631 111.638 79.84 112.157 80.0629C112.68 80.2857 113.148 80.5668 113.559 80.906C113.976 81.2451 114.306 81.6546 114.548 82.1343C114.79 82.614 114.911 83.176 114.911 83.8205C114.911 84.6926 114.688 85.4606 114.243 86.1245C113.797 86.7834 113.152 87.2995 112.309 87.6726C111.471 88.0408 110.456 88.225 109.264 88.225C108.106 88.225 107.1 88.0457 106.248 87.6871C105.4 87.3286 104.736 86.8052 104.256 86.1172C103.781 85.4292 103.525 84.5909 103.486 83.6024H106.139C106.177 84.1209 106.337 84.5521 106.618 84.8962C106.899 85.2402 107.265 85.497 107.716 85.6666C108.171 85.8362 108.68 85.921 109.242 85.921C109.828 85.921 110.342 85.8337 110.783 85.6593C111.229 85.48 111.578 85.2329 111.83 84.918C112.082 84.5982 112.21 84.2251 112.215 83.7987C112.21 83.411 112.096 83.0912 111.873 82.8393C111.65 82.5825 111.338 82.3693 110.936 82.1997C110.538 82.0253 110.073 81.8702 109.54 81.7345L107.847 81.2984C106.621 80.9835 105.652 80.5062 104.939 79.8666C104.232 79.2222 103.878 78.367 103.878 77.301C103.878 76.424 104.116 75.656 104.591 74.997C105.07 74.338 105.722 73.8268 106.546 73.4634C107.369 73.0952 108.302 72.911 109.344 72.911C110.4 72.911 111.326 73.0952 112.12 73.4634C112.92 73.8268 113.547 74.3332 114.003 74.9824C114.458 75.6269 114.693 76.3682 114.708 77.2065H112.113Z" fill="#EFEFEF"></path><path d="M117.17 87.9996V86.0518L122.337 80.9859C122.832 80.4868 123.244 80.0435 123.573 79.6558C123.903 79.2682 124.15 78.8927 124.314 78.5293C124.479 78.1659 124.561 77.7783 124.561 77.3664C124.561 76.8964 124.455 76.4942 124.242 76.1599C124.029 75.8207 123.735 75.5591 123.362 75.3749C122.989 75.1908 122.565 75.0987 122.09 75.0987C121.601 75.0987 121.172 75.2005 120.804 75.404C120.436 75.6027 120.15 75.8861 119.946 76.2544C119.748 76.6226 119.648 77.0611 119.648 77.5699H117.083C117.083 76.625 117.298 75.8037 117.729 75.106C118.161 74.4083 118.754 73.868 119.51 73.4852C120.271 73.1024 121.143 72.911 122.127 72.911C123.125 72.911 124.002 73.0976 124.758 73.4707C125.514 73.8438 126.1 74.355 126.517 75.0043C126.938 75.6535 127.149 76.3949 127.149 77.2283C127.149 77.7855 127.042 78.333 126.829 78.8709C126.616 79.4087 126.24 80.0047 125.703 80.6588C125.17 81.313 124.421 82.1052 123.457 83.0355L120.891 85.6448V85.7465H127.374V87.9996H117.17Z" fill="#EFEFEF"></path><path d="M135.049 72.911C135.762 72.9159 136.455 73.0419 137.128 73.289C137.806 73.5312 138.417 73.9286 138.96 74.4809C139.502 75.0285 139.934 75.7626 140.253 76.6832C140.573 77.6038 140.733 78.7425 140.733 80.0992C140.738 81.3784 140.602 82.5219 140.326 83.5298C140.055 84.5328 139.665 85.3807 139.156 86.0736C138.647 86.7665 138.034 87.2946 137.317 87.658C136.6 88.0214 135.793 88.2031 134.897 88.2031C133.957 88.2031 133.123 88.019 132.397 87.6508C131.675 87.2825 131.091 86.7786 130.645 86.139C130.199 85.4994 129.925 84.7678 129.824 83.944H132.476C132.612 84.5352 132.888 85.0052 133.305 85.354C133.727 85.6981 134.257 85.8701 134.897 85.8701C135.929 85.8701 136.723 85.4219 137.281 84.5255C137.838 83.6291 138.117 82.3838 138.117 80.7897H138.015C137.777 81.2161 137.47 81.5843 137.092 81.8944C136.714 82.1997 136.285 82.4347 135.805 82.5994C135.33 82.7642 134.826 82.8465 134.294 82.8465C133.421 82.8465 132.636 82.6382 131.939 82.2215C131.246 81.8048 130.696 81.233 130.289 80.5062C129.887 79.7794 129.683 78.9484 129.678 78.0133C129.678 77.0442 129.901 76.1744 130.347 75.404C130.798 74.6287 131.425 74.0182 132.229 73.5724C133.034 73.1218 133.974 72.9013 135.049 72.911ZM135.057 75.0915C134.533 75.0915 134.061 75.2199 133.639 75.4767C133.223 75.7286 132.893 76.0727 132.651 76.5088C132.413 76.94 132.295 77.4221 132.295 77.9551C132.3 78.4833 132.418 78.963 132.651 79.3942C132.888 79.8254 133.211 80.167 133.618 80.419C134.029 80.671 134.499 80.7969 135.028 80.7969C135.42 80.7969 135.786 80.7218 136.125 80.5716C136.464 80.4214 136.76 80.2131 137.012 79.9466C137.269 79.6752 137.467 79.3675 137.608 79.0235C137.753 78.6795 137.823 78.3161 137.819 77.9333C137.819 77.4245 137.697 76.9545 137.455 76.5233C137.218 76.092 136.891 75.7456 136.474 75.4839C136.062 75.2223 135.59 75.0915 135.057 75.0915Z" fill="#EFEFEF"></path><path d="M143.299 87.9996L149.629 75.4694V75.3677H142.281V73.1145H152.42V75.4185L146.097 87.9996H143.299Z" fill="#EFEFEF"></path><path d="M163.084 88.225C162.377 88.225 161.74 88.099 161.173 87.847C160.611 87.5902 160.165 87.2123 159.835 86.7132C159.511 86.2141 159.349 85.5987 159.349 84.8671C159.349 84.2372 159.465 83.7163 159.697 83.3044C159.93 82.8926 160.247 82.5631 160.649 82.316C161.052 82.0689 161.505 81.8823 162.009 81.7563C162.517 81.6255 163.043 81.531 163.586 81.4729C164.24 81.405 164.771 81.3445 165.178 81.2912C165.585 81.233 165.88 81.1458 166.064 81.0295C166.253 80.9084 166.348 80.7218 166.348 80.4699V80.4263C166.348 79.8787 166.185 79.4548 165.861 79.1543C165.536 78.8539 165.069 78.7037 164.458 78.7037C163.814 78.7037 163.302 78.8442 162.924 79.1253C162.551 79.4063 162.299 79.7382 162.169 80.121L159.712 79.7721C159.906 79.0938 160.226 78.5269 160.671 78.0714C161.117 77.6111 161.662 77.2671 162.307 77.0393C162.951 76.8067 163.663 76.6905 164.443 76.6905C164.981 76.6905 165.517 76.7534 166.05 76.8794C166.583 77.0054 167.07 77.2138 167.511 77.5045C167.952 77.7904 168.305 78.1804 168.572 78.6747C168.843 79.1689 168.979 79.7867 168.979 80.528V87.9996H166.449V86.4661H166.362C166.202 86.7762 165.977 87.0669 165.686 87.3382C165.4 87.6047 165.039 87.8204 164.603 87.9851C164.172 88.145 163.666 88.225 163.084 88.225ZM163.768 86.2916C164.296 86.2916 164.754 86.1875 165.141 85.9791C165.529 85.7659 165.827 85.4849 166.035 85.136C166.248 84.7871 166.355 84.4068 166.355 83.9949V82.6794C166.273 82.7472 166.132 82.8102 165.933 82.8684C165.74 82.9265 165.522 82.9774 165.279 83.021C165.037 83.0646 164.797 83.1034 164.56 83.1373C164.322 83.1712 164.116 83.2003 163.942 83.2245C163.549 83.2778 163.198 83.365 162.888 83.4861C162.578 83.6073 162.333 83.7769 162.154 83.9949C161.975 84.2081 161.885 84.4843 161.885 84.8235C161.885 85.308 162.062 85.6738 162.416 85.921C162.769 86.1681 163.22 86.2916 163.768 86.2916ZM163.6 75.3677L161.369 72.0461H163.949L165.57 75.3677H163.6Z" fill="#EFEFEF"></path><path d="M186.673 76.8358L182.697 87.9996H179.79L175.814 76.8358H178.62L181.186 85.1287H181.302L183.875 76.8358H186.673Z" fill="#EFEFEF"></path><path d="M188.494 87.9996V76.8358H191.125V87.9996H188.494ZM189.816 75.2514C189.4 75.2514 189.041 75.1133 188.741 74.8371C188.44 74.5561 188.29 74.2193 188.29 73.8268C188.29 73.4295 188.44 73.0927 188.741 72.8166C189.041 72.5355 189.4 72.395 189.816 72.395C190.238 72.395 190.597 72.5355 190.892 72.8166C191.193 73.0927 191.343 73.4295 191.343 73.8268C191.343 74.2193 191.193 74.5561 190.892 74.8371C190.597 75.1133 190.238 75.2514 189.816 75.2514Z" fill="#EFEFEF"></path><path d="M202.654 79.7867L200.255 80.0483C200.187 79.8061 200.069 79.5783 199.899 79.3651C199.734 79.1519 199.511 78.9799 199.23 78.8491C198.949 78.7183 198.605 78.6528 198.198 78.6528C197.651 78.6528 197.191 78.7716 196.817 79.009C196.449 79.2464 196.267 79.5541 196.272 79.932C196.267 80.2567 196.386 80.5208 196.628 80.7243C196.876 80.9278 197.283 81.0949 197.85 81.2258L199.754 81.6328C200.81 81.8605 201.595 82.2215 202.109 82.7157C202.627 83.21 202.889 83.8568 202.894 84.6563C202.889 85.3589 202.683 85.9791 202.276 86.5169C201.874 87.0499 201.314 87.4666 200.597 87.7671C199.88 88.0675 199.056 88.2177 198.126 88.2177C196.759 88.2177 195.659 87.9318 194.826 87.36C193.993 86.7834 193.496 85.9815 193.336 84.9543L195.902 84.7072C196.018 85.2111 196.265 85.5915 196.643 85.8483C197.021 86.1051 197.513 86.2335 198.118 86.2335C198.743 86.2335 199.245 86.1051 199.623 85.8483C200.006 85.5915 200.197 85.2741 200.197 84.8962C200.197 84.5764 200.074 84.3123 199.826 84.1039C199.584 83.8956 199.206 83.7357 198.693 83.6242L196.788 83.2245C195.718 83.0016 194.925 82.6261 194.412 82.0979C193.898 81.5649 193.644 80.8914 193.649 80.0774C193.644 79.3893 193.83 78.7934 194.208 78.2894C194.591 77.7807 195.122 77.3882 195.8 77.112C196.483 76.831 197.27 76.6905 198.162 76.6905C199.47 76.6905 200.5 76.9691 201.251 77.5263C202.007 78.0835 202.474 78.837 202.654 79.7867Z" fill="#EFEFEF"></path><path d="M210.638 76.8358V78.8709H204.22V76.8358H210.638ZM205.804 74.1612H208.436V84.6418C208.436 84.9955 208.489 85.2668 208.595 85.4558C208.707 85.6399 208.852 85.7659 209.032 85.8337C209.211 85.9016 209.409 85.9355 209.628 85.9355C209.792 85.9355 209.942 85.9234 210.078 85.8992C210.219 85.8749 210.325 85.8531 210.398 85.8337L210.841 87.8906C210.701 87.9391 210.5 87.9924 210.238 88.0505C209.981 88.1087 209.666 88.1426 209.293 88.1523C208.634 88.1717 208.041 88.0723 207.512 87.8543C206.984 87.6314 206.565 87.2874 206.255 86.8222C205.95 86.357 205.8 85.7756 205.804 85.0779V74.1612Z" fill="#EFEFEF"></path><path d="M216.051 88.225C215.343 88.225 214.706 88.099 214.139 87.847C213.577 87.5902 213.131 87.2123 212.802 86.7132C212.477 86.2141 212.315 85.5987 212.315 84.8671C212.315 84.2372 212.431 83.7163 212.664 83.3044C212.896 82.8926 213.214 82.5631 213.616 82.316C214.018 82.0689 214.471 81.8823 214.975 81.7563C215.484 81.6255 216.009 81.531 216.552 81.4729C217.206 81.405 217.737 81.3445 218.144 81.2912C218.551 81.233 218.846 81.1458 219.031 81.0295C219.22 80.9084 219.314 80.7218 219.314 80.4699V80.4263C219.314 79.8787 219.152 79.4548 218.827 79.1543C218.502 78.8539 218.035 78.7037 217.424 78.7037C216.78 78.7037 216.269 78.8442 215.891 79.1253C215.518 79.4063 215.266 79.7382 215.135 80.121L212.678 79.7721C212.872 79.0938 213.192 78.5269 213.638 78.0714C214.083 77.6111 214.629 77.2671 215.273 77.0393C215.917 76.8067 216.63 76.6905 217.41 76.6905C217.948 76.6905 218.483 76.7534 219.016 76.8794C219.549 77.0054 220.036 77.2138 220.477 77.5045C220.918 77.7904 221.272 78.1804 221.538 78.6747C221.809 79.1689 221.945 79.7867 221.945 80.528V87.9996H219.416V86.4661H219.329C219.169 86.7762 218.943 87.0669 218.653 87.3382C218.367 87.6047 218.006 87.8204 217.57 87.9851C217.138 88.145 216.632 88.225 216.051 88.225ZM216.734 86.2916C217.262 86.2916 217.72 86.1875 218.108 85.9791C218.495 85.7659 218.793 85.4849 219.002 85.136C219.215 84.7871 219.321 84.4068 219.321 83.9949V82.6794C219.239 82.7472 219.098 82.8102 218.9 82.8684C218.706 82.9265 218.488 82.9774 218.246 83.021C218.003 83.0646 217.764 83.1034 217.526 83.1373C217.289 83.1712 217.083 83.2003 216.908 83.2245C216.516 83.2778 216.165 83.365 215.854 83.4861C215.544 83.6073 215.3 83.7769 215.12 83.9949C214.941 84.2081 214.851 84.4843 214.851 84.8235C214.851 85.308 215.028 85.6738 215.382 85.921C215.736 86.1681 216.186 86.2916 216.734 86.2916Z" fill="#EFEFEF"></path></svg>